<svg xmlns="http://www.w3.org/2000/svg" width="150" height="19.778" viewBox="0 0 200 26.385">
  <title>nice-ic-white</title>
  <g id="4f25a622-d60f-4c12-8f49-5ba3e3b4b260" data-name="Layer 2">
    <g id="dc8363fb-3565-4ff2-9883-f9f342e1b8fa" data-name="Layer 1">
      <path
        d="M51.378.437H66.721V6.395H57.474V10.11h7.569v5.958H57.474V20h9.247v5.934H51.378Zm-2.737,9.833a14.051,14.051,0,0,0-2.369-7.235C44.938,1.253,42.5.1,39.2,0a9.155,9.155,0,0,0-4.418,1.357A11.382,11.382,0,0,0,31.17,5.866a20.312,20.312,0,0,0-1.334,7.648A18.575,18.575,0,0,0,31.1,20.438a9.232,9.232,0,0,0,3.45,4.5,10.025,10.025,0,0,0,5.359,1.449A7.922,7.922,0,0,0,46.2,23.579a13.945,13.945,0,0,0,2.6-7.649H42.89c-.311,2.83-1.494,4.4-3.3,4.4-2.369,0-3.543-2.311-3.543-6.821a13.723,13.723,0,0,1,.864-5.336,2.779,2.779,0,0,1,2.6-2,3.85,3.85,0,0,1,2.127.852,5.921,5.921,0,0,1,1.254,3.243ZM21.382,25.913h6.084V.437H21.382ZM0,25.913H5.728L5.7,18.069l.023-5.946,6.315,13.79h5.785V.437H11.961V14.459L5.475.437H0Zm86.261-16.5H84.723V23.3h1.539Zm-.877-2.7H85.6a.784.784,0,0,0,.764-.8V5.584a.784.784,0,0,0-.764-.8h-.216a.784.784,0,0,0-.764.8v.331A.784.784,0,0,0,85.384,6.718Zm14.995,4.01a4.78,4.78,0,0,0-1.62-1.24,6,6,0,0,0-2.388-.425,5.433,5.433,0,0,0-3.483,1.168,5.218,5.218,0,0,0-.959,1.076,1.2,1.2,0,0,0-.308.57l-.245-2.419a.122.122,0,0,0-.121-.109H89.819V23.4h1.8v-7.25a6.792,6.792,0,0,1,.237-1.938,5.906,5.906,0,0,1,.838-1.788,4.653,4.653,0,0,1,1.434-1.32,3.981,3.981,0,0,1,2.062-.514,5.13,5.13,0,0,1,1.6.229,2.49,2.49,0,0,1,1.145.785,3.868,3.868,0,0,1,.72,1.538,10.36,10.36,0,0,1,.253,2.475V23.4h1.8V15.587C101.71,13.549,101.35,11.815,100.379,10.728Zm19.139,7.6a.637.637,0,0,0-1.062-.3l-.086.083a9.92,9.92,0,0,1-1.012.931,5.467,5.467,0,0,1-1.461.739,6.369,6.369,0,0,1-2.065.3,5.193,5.193,0,0,1-2.375-.532,5.617,5.617,0,0,1-1.812-1.448,6.531,6.531,0,0,1-1.166-2.157,8.479,8.479,0,0,1-.407-2.66,8.894,8.894,0,0,1,.407-2.7,6.827,6.827,0,0,1,1.18-2.246A5.892,5.892,0,0,1,111.527,6.8,5.228,5.228,0,0,1,114,6.222a5.135,5.135,0,0,1,2.993.827,7.476,7.476,0,0,1,1.4,1.263,1.1,1.1,0,0,0,1.58.1L121.588,6.9a10.476,10.476,0,0,0-1.293-1.552,7.87,7.87,0,0,0-1.672-1.256,8.965,8.965,0,0,0-2.093-.842A9.7,9.7,0,0,0,114,2.942a9.112,9.112,0,0,0-3.906.827,9.443,9.443,0,0,0-3.049,2.246,10.177,10.177,0,0,0-1.981,3.31,11.529,11.529,0,0,0-.7,4.049,11.457,11.457,0,0,0,.7,4.078,9.856,9.856,0,0,0,1.967,3.236,8.933,8.933,0,0,0,3.007,2.143,9.438,9.438,0,0,0,3.85.768,8.4,8.4,0,0,0,2.557-.384,10.472,10.472,0,0,0,2.22-.99,9.839,9.839,0,0,0,1.812-1.369v0a9.829,9.829,0,0,1-.512-1.1A13.481,13.481,0,0,1,119.518,18.33Zm2.141.7a8.085,8.085,0,0,1,0-5.7,7.323,7.323,0,0,1,1.447-2.349,7.014,7.014,0,0,1,10.229,0,7.329,7.329,0,0,1,1.447,2.349,8.085,8.085,0,0,1,0,5.7,7.5,7.5,0,0,1-1.447,2.364,6.726,6.726,0,0,1-2.234,1.611,7.312,7.312,0,0,1-5.761,0,6.726,6.726,0,0,1-2.234-1.611A7.491,7.491,0,0,1,121.659,19.033Zm2.824-2.852a5.444,5.444,0,0,0,.225,1.537,4.691,4.691,0,0,0,.689,1.419,3.592,3.592,0,0,0,1.166,1.049,3.646,3.646,0,0,0,3.316,0,3.6,3.6,0,0,0,1.166-1.049,4.7,4.7,0,0,0,.689-1.419,5.457,5.457,0,0,0,.225-1.537,5.519,5.519,0,0,0-.225-1.522,4.5,4.5,0,0,0-.689-1.419,3.663,3.663,0,0,0-1.166-1.034,3.64,3.64,0,0,0-3.316,0,3.659,3.659,0,0,0-1.166,1.034,4.5,4.5,0,0,0-.689,1.419A5.505,5.505,0,0,0,124.483,16.181Zm12.4,6.975H140.2V15.65a4.2,4.2,0,0,1,.239-1.433,3.782,3.782,0,0,1,.66-1.168,2.979,2.979,0,0,1,1.011-.783,2.909,2.909,0,0,1,1.265-.281,2.353,2.353,0,0,1,1.784.724,2.864,2.864,0,0,1,.689,2.054v8.393h3.316V14.733a6.331,6.331,0,0,0-1.293-4.182A4.623,4.623,0,0,0,144.1,9a5.1,5.1,0,0,0-1.405.177,5.037,5.037,0,0,0-1.11.458,4.583,4.583,0,0,0-.843.606,7.527,7.527,0,0,0-.6.621l-.047-.879a.726.726,0,0,0-.725-.687h-2.487Zm24.128-4.049c0-.04,0-.077.006-.117a15.535,15.535,0,0,1-2.07,1.417,2.759,2.759,0,0,1-1.25.237,1.027,1.027,0,0,1-1.028-.636,3.84,3.84,0,0,1-.185-1.817V12.232h3.6V9.349h-3.6V4.664h-3.6V9.349H150v2.883h2.883v6.2a9.385,9.385,0,0,0,.174,2.113,4.224,4.224,0,0,0,.719,1.64,3.35,3.35,0,0,0,1.35,1.049,5.075,5.075,0,0,0,2.045.369,7.009,7.009,0,0,0,2.132-.369,8.91,8.91,0,0,0,2.308-1.361c-.011-.022-.024-.041-.035-.063A6.227,6.227,0,0,1,161.01,19.107Zm13.13-5.26V23.4h-1.776a1.252,1.252,0,0,1-1.25-1.178l-.015-.246a4.427,4.427,0,0,1-1.63,1.089,5.528,5.528,0,0,1-2.445.532,5.1,5.1,0,0,1-1.616-.266,4.489,4.489,0,0,1-1.461-.812,4.032,4.032,0,0,1-1.068-1.4c-.031-.065-.053-.135-.08-.2l0,0,0,0a4.757,4.757,0,0,1-.327-1.807,5.637,5.637,0,0,1,.122-1.185l0,0v0a4.563,4.563,0,0,1,.3-.928,4.363,4.363,0,0,1,1.183-1.566,5.163,5.163,0,0,1,1.832-.961,8.165,8.165,0,0,1,2.37-.325c.262,0,.572.005.891.015s.667.025.967.044c.337.02.758.04,1.119.059v-.325a1.993,1.993,0,0,0-.866-1.626,3.579,3.579,0,0,0-2.13-.591,5.5,5.5,0,0,0-2.248.384q-.156.071-.3.144a1.558,1.558,0,0,1-1.99-.569l-.713-1.111q.393-.3.9-.606a6.775,6.775,0,0,1,1.179-.562,9.356,9.356,0,0,1,1.558-.414,11.545,11.545,0,0,1,2.061-.162,6.676,6.676,0,0,1,2.282.369,5.116,5.116,0,0,1,1.74,1.034,4.421,4.421,0,0,1,1.09,1.6A5.124,5.124,0,0,1,174.14,13.847Zm-2.883,3.341a.314.314,0,0,0-.3-.313c-.267-.014-.534-.029-.765-.043-.263-.019-.618-.034-.908-.044s-.539-.015-.745-.015a3.069,3.069,0,0,0-2.248.665,2.119,2.119,0,0,0-.644,1.522,1.71,1.71,0,0,0,.607,1.389,2.689,2.689,0,0,0,1.715.5,3.293,3.293,0,0,0,1.169-.187,3.444,3.444,0,0,0,1.042-.581,3.143,3.143,0,0,0,.728-.827,2.111,2.111,0,0,0,.346-1.005Zm15.668,2.957a1.4,1.4,0,0,0-1.823-.269,4.311,4.311,0,0,1-.489.28,4.039,4.039,0,0,1-1.8.4,3.4,3.4,0,0,1-1.658-.384,3.575,3.575,0,0,1-1.166-1,4.331,4.331,0,0,1-.689-1.389,5.547,5.547,0,0,1-.225-1.566,5.961,5.961,0,0,1,.225-1.625,3.963,3.963,0,0,1,.689-1.389,3.568,3.568,0,0,1,1.166-.96,3.513,3.513,0,0,1,1.658-.369,3.817,3.817,0,0,1,1.742.384,4.061,4.061,0,0,1,.429.252,1.455,1.455,0,0,0,1.867-.227l1.132-1.207a6.782,6.782,0,0,0-2.248-1.64,7.336,7.336,0,0,0-5.8-.015,6.843,6.843,0,0,0-2.234,1.6,7.323,7.323,0,0,0-1.447,2.349,7.834,7.834,0,0,0-.52,2.852,9.033,9.033,0,0,0,.478,3.014,6.637,6.637,0,0,0,1.377,2.335,6.037,6.037,0,0,0,2.22,1.507,8,8,0,0,0,3.007.532,6.623,6.623,0,0,0,2.951-.621,7.139,7.139,0,0,0,2.192-1.655Zm4.616-1.718a9.273,9.273,0,0,0,.225,2.113,4.254,4.254,0,0,0,.745,1.64,3.391,3.391,0,0,0,1.363,1.049,5.107,5.107,0,0,0,2.052.369,5.887,5.887,0,0,0,2.135-.369A6.66,6.66,0,0,0,200,22l-.8-1.23a1.135,1.135,0,0,0-1.48-.371l-.009,0a2.77,2.77,0,0,1-1.25.237,1.314,1.314,0,0,1-1.222-.636,3.576,3.576,0,0,1-.379-1.817V12.133H198.4V9.3h-3.541V4.8h-3.316V9.3h-2.248v2.837h2.248Z"
        fill="#fff"/>
      <path
        d="M48.756,10.314h5.592v5.593H48.756ZM27.465,15.907h5.591V10.314H27.465Zm-11.676,0h5.593V10.314H15.789Zm55.948.14H77.33V10.454H71.738Z"
        fill="#61b5ed"/>
    </g>
  </g>
</svg>
